<?xml version="1.0" encoding="UTF-8"?>
<svg width="70" height="60" version="1.1" viewBox="0 0 700 500" xmlns="http://www.w3.org/2000/svg">
 <path d="m274.18 23.895c-5.5234 0.046875-10.508 3.3203-12.75 8.3711-6.9102 15.559-7.082 33.281-0.46875 48.969 0.62891 1.4961 0.33984 3.2188-0.73438 4.4336-1.0742 1.2109-2.75 1.7031-4.3086 1.2617-28.258-8.1445-56.953-14.684-85.945-19.582-1.125-0.17969-2.0352-1.0156-2.3008-2.1211-2.6758-10.84-6.957-21.219-12.703-30.793-2.4375-4.043-7.4492-5.7148-11.828-3.9492-4.375 1.7656-6.8203 6.4492-5.7695 11.051 1.3594 5.9141 2.1172 11.953 2.2539 18.02 0.019531 0.82031-0.32031 1.6055-0.92969 2.1562-0.60937 0.54687-1.4258 0.80469-2.2383 0.69922-9.8711-1.2305-19.766-2.2734-29.676-3.125-6.0156-0.50781-11.523 3.3867-13.043 9.2266-1.5234 5.8398 1.3828 11.93 6.8789 14.422 6.4531 2.9336 13.047 5.543 19.762 7.8125 1.0234 0.34375 1.7617 1.2383 1.8984 2.3086 0.14062 1.0703-0.34375 2.125-1.2461 2.7148-4.4297 2.8828-8.7188 5.9688-12.863 9.2461-3.4492 2.7305-4.625 7.4453-2.8633 11.477 1.7617 4.0312 6.0195 6.3711 10.367 5.6953 11.289-1.75 22.344-4.7617 32.957-8.9766 7.1367-2.8438 15.23 0.55078 18.199 7.6367 26.633 63.52 33.941 133.48 21.012 201.14-0.79688 4.1797-3.4453 7.7773-7.2031 9.7812-3.7539 2.0039-8.2148 2.1992-12.133 0.53516-11.562-4.8906-23.68-8.332-36.086-10.25-4.3477-0.67578-8.6016 1.6641-10.363 5.6953-1.7617 4.0312-0.58594 8.7422 2.8594 11.477 4.1445 3.2773 8.4375 6.3594 12.863 9.2422 0.90234 0.59375 1.3867 1.6484 1.2461 2.7148-0.13672 1.0703-0.875 1.9688-1.8984 2.3086-6.707 2.2734-13.293 4.8828-19.738 7.8164-5.5039 2.4922-8.4102 8.5898-6.8789 14.434 1.5273 5.8438 7.0469 9.7344 13.062 9.2109 9.9062-0.85156 19.793-1.8945 29.656-3.125 0.80859-0.097656 1.6211 0.16406 2.2227 0.71094 0.60547 0.54688 0.94141 1.332 0.92578 2.1484-0.14062 6.0664-0.89844 12.102-2.2578 18.02-1.0625 4.6094 1.3867 9.3125 5.7812 11.074 4.3906 1.7656 9.4141 0.070312 11.836-3.9961 4.8633-8.0977 8.6836-16.781 11.367-25.836 1.2852-4.3398 4.5742-7.793 8.8398-9.2891 40.613-14.273 82.969-22.98 125.92-25.879 1.2812-0.085938 2.5352 0.42188 3.3984 1.375 0.86328 0.94922 1.25 2.2422 1.043 3.5156-7.1562 44.141-1.0547 89.414 17.527 130.09 13.379 18.484 30.027 34.359 49.125 46.844 8.2188 5.3711 18.367 6.8984 27.801 4.1875 9.4375-2.707 17.227-9.3867 21.348-18.297 4.1172-8.9102 4.1562-19.172 0.10938-28.113-5.2734-11.637-12.047-22.539-20.141-32.422-1.6133-1.9688-2.8828-4.1953-3.75-6.5859-5.5039-15.164-8.6172-31.09-9.2227-47.207-0.51562-13.715-7.2578-26.449-18.309-34.586-4.7617-3.5039-9.0352-7.6289-12.707-12.262-1.0273-1.3008-1.1953-3.0859-0.42969-4.5586 0.76562-1.4766 2.3242-2.3633 3.9805-2.2695 44.484 2.582 88.387 11.391 130.43 26.168 4.2656 1.4961 7.5586 4.9492 8.8398 9.2891 2.6836 9.0547 6.5039 17.738 11.367 25.836 2.4219 4.0664 7.4453 5.7617 11.836 3.9961 4.3945-1.7617 6.8438-6.4648 5.7812-11.074-1.3594-5.918-2.1172-11.953-2.2539-18.02-0.019531-0.81641 0.31641-1.6016 0.92188-2.1484 0.60156-0.54687 1.4141-0.80859 2.2266-0.71094 9.8633 1.2305 19.75 2.2734 29.652 3.125 6.0156 0.52344 11.535-3.3711 13.062-9.2148 1.5273-5.8438-1.375-11.938-6.8789-14.43-6.4453-2.9336-13.031-5.543-19.738-7.8164-1.0234-0.33984-1.7617-1.2383-1.8984-2.3086-0.14062-1.0664 0.34375-2.1211 1.2461-2.7148 4.4258-2.8828 8.7188-5.9648 12.863-9.2422 3.4453-2.7344 4.6211-7.4453 2.8594-11.477-1.7617-4.0312-6.0156-6.3711-10.363-5.6953-12.406 1.918-24.523 5.3594-36.082 10.25-3.918 1.6641-8.3828 1.4688-12.137-0.53516-3.7578-2.0039-6.4023-5.6016-7.2031-9.7812-12.93-67.656-5.6211-137.62 21.012-201.14 2.9688-7.0859 11.066-10.48 18.199-7.6367 10.613 4.2148 21.672 7.2266 32.957 8.9766 4.3477 0.67188 8.6055-1.6641 10.367-5.6953 1.7617-4.0352 0.58594-8.7461-2.8633-11.477-4.1445-3.2773-8.4336-6.3633-12.863-9.2461-0.90234-0.58984-1.3867-1.6445-1.2461-2.7148 0.13672-1.0703 0.875-1.9648 1.8984-2.3086 6.7148-2.2695 13.309-4.8789 19.762-7.8125 5.5039-2.4922 8.4102-8.5898 6.8828-14.434-1.5312-5.8477-7.0508-9.7383-13.07-9.2148-9.9023 0.85156-19.789 1.8945-29.652 3.125-0.8125 0.10547-1.6328-0.15234-2.2383-0.69922-0.60938-0.55078-0.94922-1.3359-0.92969-2.1562 0.13672-6.0664 0.89453-12.105 2.2539-18.02 1.0508-4.6016-1.3945-9.2852-5.7734-11.051-4.375-1.7656-9.3867-0.09375-11.824 3.9492-5.7461 9.5742-10.027 19.953-12.703 30.793-0.26562 1.0977-1.1602 1.9336-2.2773 2.1211-28.996 4.8984-57.691 11.438-85.945 19.582-1.5586 0.44141-3.2344-0.050782-4.3125-1.2617-1.0742-1.2148-1.3594-2.9375-0.73438-4.4336 6.6055-15.691 6.4297-33.414-0.49219-48.969-3.0938-6.9766-11.188-10.215-18.242-7.3008-11.957 4.9375-21.391 14.52-26.148 26.551-2.5156 6.3828-9.2695 10.027-15.984 8.6172-18.602-3.875-37.805-3.875-56.406 0-6.7109 1.3984-13.449-2.2422-15.965-8.6172-4.7578-12.035-14.203-21.617-26.168-26.551-1.7422-0.72266-3.6094-1.0859-5.4922-1.0742zm35.281 95.926c2.8867 0.007813 5.6523 1.1836 7.6602 3.2617 2.0039 2.0781 3.0859 4.8789 2.9922 7.7695 0.12109 2.9062-0.94922 5.7383-2.9648 7.8398-2.0156 2.1016-4.8008 3.2891-7.7109 3.2891s-5.6953-1.1875-7.7109-3.2891c-2.0117-2.1016-3.082-4.9336-2.9609-7.8398-0.09375-2.8867 0.98438-5.6914 2.9922-7.7695 2.0078-2.0781 4.7695-3.2539 7.6562-3.2617zm81.078 0.13281c2.8867-0.011719 5.6562 1.1484 7.6758 3.2148 2.0195 2.0625 3.1172 4.8594 3.0391 7.7461 0 5.9023-4.7812 10.684-10.684 10.684-5.8984 0-10.684-4.7812-10.684-10.684-0.074219-2.875 1.0117-5.6602 3.0156-7.7227s4.7578-3.2305 7.6367-3.2383z"/>
</svg>
