<?xml version="1.0" encoding="UTF-8"?>
<svg xmlns="http://www.w3.org/2000/svg" xmlns:xlink="http://www.w3.org/1999/xlink" width="84px" height="80px" viewBox="0 0 83 80" version="1.1">
<g id="surface1">
<path style=" stroke:none;fill-rule:nonzero;fill:rgb(0%,0%,0%);fill-opacity:1;" d="M 26.308594 1.859375 C 25.703125 2.570312 25.46875 3.960938 25.550781 6.261719 C 25.667969 9.222656 26.289062 10.355469 28.371094 11.421875 C 29.195312 11.84375 29.210938 11.859375 29.210938 12.621094 C 29.210938 13.0625 29.09375 14.214844 28.941406 15.210938 C 28.707031 16.851562 28.707031 18.089844 28.976562 19.050781 C 29.058594 19.375 28.457031 19.914062 24.8125 22.875 C 17.914062 28.492188 14.957031 30.625 12.757812 31.558594 C 11.617188 32.046875 11.046875 32.082031 10.746094 31.707031 C 10.609375 31.574219 10.375 31.371094 10.191406 31.269531 C 9.871094 31.101562 9.855469 31.132812 9.957031 31.792969 L 10.039062 32.46875 L 9.433594 32.0625 C 8.292969 31.285156 8.058594 31.589844 9 32.640625 L 9.585938 33.316406 L 8.378906 33.214844 C 7 33.097656 6.882812 33.300781 7.90625 33.960938 C 9.015625 34.6875 9.234375 34.875 9.148438 35.042969 C 9.082031 35.125 8.898438 35.195312 8.714844 35.195312 C 8.527344 35.195312 8.160156 35.3125 7.890625 35.449219 C 6.832031 35.988281 7.519531 36.3125 9.132812 36.023438 C 9.753906 35.921875 10.425781 35.886719 10.660156 35.9375 C 11.011719 36.023438 11.082031 36.140625 11.082031 36.699219 C 11.082031 37.53125 11.214844 37.902344 11.515625 37.902344 C 11.632812 37.902344 11.785156 37.632812 11.835938 37.257812 C 12.054688 35.820312 12.273438 35.378906 13.0625 34.6875 C 14.738281 33.179688 19.039062 31.507812 20.597656 31.726562 C 23.199219 32.097656 25.25 36.53125 24.695312 40.609375 C 24.292969 43.605469 22.09375 47.734375 19.15625 50.964844 L 18.265625 51.945312 L 17.292969 51.4375 C 15.644531 50.609375 15.007812 50.914062 16.234375 51.929688 C 16.839844 52.4375 16.839844 52.453125 16.535156 52.773438 C 16.367188 52.976562 15.832031 53.351562 15.34375 53.636719 C 14.453125 54.144531 14.101562 54.550781 14.101562 55.074219 C 14.101562 55.449219 14.65625 55.261719 15.445312 54.652344 C 16.503906 53.839844 16.554688 53.910156 15.644531 54.875 C 14.789062 55.785156 14.605469 56.3125 15.058594 56.464844 C 15.175781 56.515625 15.664062 56.175781 16.148438 55.71875 L 17.023438 54.90625 L 16.570312 55.703125 C 15.847656 56.953125 16.082031 57.277344 17.039062 56.34375 L 17.578125 55.820312 L 17.492188 56.363281 C 17.375 57.191406 17.964844 56.9375 18.515625 55.90625 C 19.039062 54.90625 20.230469 53.738281 20.582031 53.875 C 20.714844 53.925781 21.335938 53.535156 22.027344 52.925781 C 23.855469 51.386719 25.9375 50.066406 29.226562 48.410156 C 32.769531 46.617188 33.507812 46.429688 36.480469 46.617188 C 40.140625 46.820312 40.695312 46.9375 41.28125 47.546875 C 41.566406 47.851562 41.800781 48.171875 41.800781 48.257812 C 41.800781 48.492188 43.328125 50.085938 43.566406 50.085938 C 43.683594 50.085938 43.816406 50.238281 43.867188 50.421875 C 43.917969 50.609375 44.085938 50.761719 44.238281 50.761719 C 44.40625 50.761719 44.808594 50.929688 45.144531 51.132812 C 46.753906 52.148438 47.996094 52.742188 50.785156 53.839844 C 51.992188 54.316406 53.082031 54.804688 53.234375 54.941406 C 53.386719 55.074219 53.804688 55.226562 54.15625 55.277344 C 54.527344 55.328125 55.164062 55.550781 55.601562 55.769531 C 56.039062 55.988281 56.476562 56.175781 56.574219 56.175781 C 56.675781 56.175781 56.910156 56.328125 57.097656 56.496094 C 57.28125 56.667969 57.867188 56.972656 58.40625 57.175781 C 60.253906 57.851562 61.496094 59.339844 61.796875 61.269531 C 62.015625 62.605469 61.746094 64.890625 61.175781 66.632812 C 60.707031 68.089844 59.445312 70.644531 58.875 71.335938 C 58.339844 71.996094 58.085938 72.792969 58.085938 73.824219 C 58.085938 76.007812 60.152344 78.003906 62.417969 78.003906 C 63.609375 78.003906 65.085938 76.851562 65.65625 75.464844 C 65.84375 75.042969 66.277344 74.011719 66.632812 73.179688 C 67.941406 70.117188 68.160156 69.578125 68.160156 69.304688 C 68.160156 69.152344 68.308594 68.59375 68.496094 68.054688 C 68.980469 66.699219 69.265625 62.859375 69.03125 61.015625 C 68.765625 59.070312 67.957031 56.597656 67.152344 55.363281 C 66.78125 54.773438 66.042969 53.859375 65.507812 53.332031 C 64.566406 52.386719 62.636719 50.929688 62.351562 50.929688 C 62.265625 50.929688 62.097656 50.777344 61.980469 50.59375 C 61.847656 50.355469 61.59375 50.253906 61.191406 50.253906 C 60.855469 50.253906 60.402344 50.117188 60.152344 49.964844 C 59.730469 49.679688 58.707031 49.273438 57.214844 48.796875 C 56.792969 48.664062 56.339844 48.425781 56.238281 48.292969 C 56.121094 48.171875 55.871094 48.054688 55.667969 48.054688 C 55.097656 48.054688 51.304688 46.632812 50.851562 46.242188 C 50.714844 46.125 50.515625 46.023438 50.414062 46.023438 C 50.3125 46.023438 50.144531 45.921875 50.046875 45.785156 C 49.894531 45.601562 50.113281 45.429688 51.152344 44.90625 C 52.261719 44.332031 52.613281 44.246094 53.773438 44.179688 C 57.3125 44.027344 64.601562 45.769531 68.191406 47.664062 C 69.386719 48.292969 71.417969 50.101562 71.601562 50.710938 C 71.734375 51.21875 72.355469 51.960938 72.542969 51.859375 C 72.625 51.792969 72.691406 51.574219 72.691406 51.355469 C 72.691406 50.964844 72.691406 50.964844 73.210938 51.472656 C 73.597656 51.859375 73.765625 51.945312 73.917969 51.792969 C 74.050781 51.660156 74 51.40625 73.714844 50.8125 L 73.332031 50 L 74.1875 50.8125 C 74.65625 51.269531 75.125 51.574219 75.210938 51.523438 C 75.597656 51.285156 75.34375 50.660156 74.589844 49.964844 C 74.167969 49.558594 73.851562 49.203125 73.902344 49.152344 C 73.933594 49.101562 74.355469 49.339844 74.808594 49.660156 C 75.664062 50.289062 75.964844 50.371094 76.152344 50.066406 C 76.300781 49.8125 75.445312 48.96875 74.421875 48.375 C 73.933594 48.089844 73.53125 47.765625 73.53125 47.648438 C 73.53125 47.53125 73.800781 47.191406 74.117188 46.871094 C 74.4375 46.546875 74.707031 46.242188 74.707031 46.175781 C 74.707031 45.835938 74.101562 45.921875 73.164062 46.363281 C 72.574219 46.648438 72.003906 46.871094 71.886719 46.871094 C 71.601562 46.871094 65.875 41.203125 64.550781 39.59375 C 62.988281 37.699219 62.03125 36.191406 60.855469 33.738281 C 58.910156 29.746094 58.253906 27.039062 58.253906 23.078125 C 58.253906 20.898438 58.40625 20.203125 59.042969 19.324219 C 59.917969 18.15625 63.542969 16.007812 67.386719 14.398438 C 69.265625 13.621094 73.566406 12.183594 74.050781 12.183594 C 74.238281 12.183594 74.691406 12.335938 75.058594 12.519531 C 75.847656 12.945312 76.050781 12.859375 76.050781 12.113281 C 76.050781 11.335938 76.300781 11.167969 77.527344 11.167969 C 78.433594 11.167969 78.585938 11.117188 78.535156 10.878906 C 78.5 10.726562 78.214844 10.507812 77.894531 10.40625 C 77.359375 10.21875 77.34375 10.1875 77.644531 10.035156 C 77.828125 9.933594 78.183594 9.8125 78.449219 9.746094 C 79.40625 9.507812 78.71875 8.96875 77.476562 8.96875 L 76.6875 8.96875 L 77.492188 8.410156 C 77.929688 8.121094 78.28125 7.785156 78.265625 7.699219 C 78.214844 7.394531 77.441406 7.429688 76.453125 7.765625 C 75.914062 7.96875 75.410156 8.121094 75.328125 8.121094 C 75.242188 8.121094 75.5625 7.683594 76.03125 7.140625 C 76.503906 6.597656 76.890625 6.089844 76.890625 6.039062 C 76.890625 5.972656 76.703125 5.921875 76.503906 5.921875 C 75.964844 5.921875 74.925781 6.699219 73.953125 7.835938 C 73.515625 8.339844 72.808594 8.949219 72.375 9.1875 C 70.726562 10.085938 66.277344 10.863281 59.597656 11.421875 C 57.886719 11.574219 55.25 11.84375 53.722656 12.011719 C 50.027344 12.453125 50.3125 12.503906 50.800781 11.609375 C 52.007812 9.425781 52.582031 5.988281 51.925781 4.738281 C 51.757812 4.417969 51.472656 4.128906 51.289062 4.09375 C 50.96875 4.0625 49.828125 4.722656 46.269531 6.988281 C 44.070312 8.410156 43.816406 8.441406 41.464844 7.765625 C 39.621094 7.226562 39.402344 7.191406 36.683594 7.175781 C 35.121094 7.175781 33.695312 7.140625 33.527344 7.140625 C 33.339844 7.125 32.25 6.175781 31.089844 5.023438 C 28.421875 2.417969 27.214844 1.355469 26.945312 1.355469 C 26.828125 1.355469 26.523438 1.574219 26.308594 1.859375 Z M 26.308594 1.859375 "/>
</g>
</svg>
